<svg width="80" height="80" viewBox="0 0 80 80" fill="none" xmlns="http://www.w3.org/2000/svg">
<path d="M25 15.0061V20.0061H72.5V29.9038L66.9531 47.5061H23.4269L17.1769 2.5H2.5V7.5H12.8231L19.0731 52.5061H70.62L77.5 30.6728V15.0061H25ZM27.6537 57.5537C25.0025 57.5568 22.4607 58.6113 20.586 60.486C18.7113 62.3607 17.6568 64.9025 17.6538 67.5537C17.6538 70.2059 18.7073 72.7495 20.5827 74.6248C22.458 76.5002 25.0016 77.5537 27.6537 77.5537C30.3059 77.5537 32.8495 76.5002 34.7248 74.6248C36.6002 72.7495 37.6537 70.2059 37.6537 67.5537C37.6508 64.9025 36.5962 62.3607 34.7215 60.486C32.8468 58.6112 30.305 57.5567 27.6537 57.5537ZM27.6537 72.5537C26.6648 72.5537 25.6981 72.2605 24.8759 71.7111C24.0537 71.1617 23.4128 70.3808 23.0344 69.4672C22.6559 68.5535 22.5569 67.5482 22.7498 66.5783C22.9428 65.6084 23.419 64.7175 24.1182 64.0182C24.8175 63.319 25.7084 62.8427 26.6783 62.6498C27.6482 62.4569 28.6535 62.5559 29.5672 62.9344C30.4808 63.3128 31.2617 63.9537 31.8111 64.7759C32.3605 65.5981 32.6537 66.5648 32.6537 67.5537C32.6522 68.8793 32.1249 70.1502 31.1875 71.0875C30.2502 72.0249 28.9793 72.5522 27.6537 72.5537ZM62.6538 57.5537C60.0025 57.5568 57.4607 58.6113 55.586 60.486C53.7113 62.3607 52.6568 64.9025 52.6538 67.5537C52.6538 70.2059 53.7073 72.7495 55.5827 74.6248C57.458 76.5002 60.0016 77.5537 62.6538 77.5537C65.3059 77.5537 67.8495 76.5002 69.7248 74.6248C71.6002 72.7495 72.6538 70.2059 72.6538 67.5537C72.6508 64.9025 71.5962 62.3607 69.7215 60.486C67.8468 58.6112 65.305 57.5567 62.6538 57.5537ZM62.6538 72.5537C61.6648 72.5537 60.6981 72.2605 59.8759 71.7111C59.0537 71.1617 58.4128 70.3808 58.0344 69.4672C57.6559 68.5535 57.5569 67.5482 57.7498 66.5783C57.9428 65.6084 58.419 64.7175 59.1182 64.0182C59.8175 63.319 60.7084 62.8427 61.6783 62.6498C62.6482 62.4569 63.6535 62.5559 64.5672 62.9344C65.4808 63.3128 66.2617 63.9537 66.8111 64.7759C67.3605 65.5981 67.6538 66.5648 67.6538 67.5537C67.6522 68.8793 67.1249 70.1502 66.1875 71.0875C65.2502 72.0249 63.9794 72.5522 62.6538 72.5537Z" fill="white"/>
</svg>
